HIERARCHY
ROOT root
{
	OFFSET 0.000000 0.000000 0.000000
	CHANNELS 6 Xposition Yposition Zposition Zrotation Yrotation Xrotation
	JOINT lhip
	{
		OFFSET 0.058581 -0.082280 -0.017664
		CHANNELS 3 Zrotation Yrotation Xrotation
		JOINT lknee
		{
			OFFSET 0.043451 -0.386469 0.008037
			CHANNELS 3 Zrotation Yrotation Xrotation
			JOINT lankle
			{
				OFFSET -0.014790 -0.426874 -0.037428
				CHANNELS 3 Zrotation Yrotation Xrotation
				JOINT ltoe
				{
					OFFSET 0.041054 -0.060286 0.122042
					CHANNELS 3 Zrotation Yrotation Xrotation
					End Site
					{
						OFFSET 0.000000 0.000000 0.000000
					}
				}
			}
		}
	}
	JOINT rhip
	{
		OFFSET -0.060310 -0.090513 -0.013543
		CHANNELS 3 Zrotation Yrotation Xrotation
		JOINT rknee
		{
			OFFSET -0.043257 -0.383688 -0.004843
			CHANNELS 3 Zrotation Yrotation Xrotation
			JOINT rankle
			{
				OFFSET 0.019056 -0.420046 -0.034562
				CHANNELS 3 Zrotation Yrotation Xrotation
				JOINT rtoe
				{
					OFFSET -0.034840 -0.062106 0.130323
					CHANNELS 3 Zrotation Yrotation Xrotation
					End Site
					{
						OFFSET 0.000000 0.000000 0.000000
					}
				}
			}
		}
	}
	JOINT lowerback
	{
		OFFSET 0.004439 0.124404 -0.038385
		CHANNELS 3 Zrotation Yrotation Xrotation
		JOINT upperback
		{
			OFFSET 0.004488 0.137956 0.026820
			CHANNELS 3 Zrotation Yrotation Xrotation
			JOINT chest
			{
				OFFSET -0.002265 0.056032 0.002855
				CHANNELS 3 Zrotation Yrotation Xrotation
				JOINT lowerneck
				{
					OFFSET -0.013390 0.211636 -0.033468
					CHANNELS 3 Zrotation Yrotation Xrotation
					JOINT upperneck
					{
						OFFSET 0.010113 0.088937 0.050410
						CHANNELS 3 Zrotation Yrotation Xrotation
						End Site
						{
							OFFSET 0.000000 0.000000 0.000000
						}
					}
				}
				JOINT lclavicle
				{
					OFFSET 0.071702 0.114000 -0.018898
					CHANNELS 3 Zrotation Yrotation Xrotation
					JOINT lshoulder
					{
						OFFSET 0.122921 0.045205 -0.019046
						CHANNELS 3 Zrotation Yrotation Xrotation
						JOINT lelbow
						{
							OFFSET 0.255332 -0.015649 -0.022946
							CHANNELS 3 Zrotation Yrotation Xrotation
							JOINT lwrist
							{
								OFFSET 0.265709 0.012698 -0.007375
								CHANNELS 3 Zrotation Yrotation Xrotation
								End Site
								{
									OFFSET 0.000000 0.000000 0.000000
								}
							}
						}
					}
				}
				JOINT rclavicle
				{
					OFFSET -0.082954 0.112472 -0.023707
					CHANNELS 3 Zrotation Yrotation Xrotation
					JOINT rshoulder
					{
						OFFSET -0.113228 0.046853 -0.008472
						CHANNELS 3 Zrotation Yrotation Xrotation
						JOINT relbow
						{
							OFFSET -0.260127 -0.014369 -0.031269
							CHANNELS 3 Zrotation Yrotation Xrotation
							JOINT rwrist
							{
								OFFSET -0.269108 0.006794 -0.006027
								CHANNELS 3 Zrotation Yrotation Xrotation
								End Site
								{
									OFFSET 0.000000 0.000000 0.000000
								}
							}
						}
					}
				}
			}
		}
	}
}
MOTION
Frames: 16
Frame Time: 0.033333
0.005674 -0.096864 0.950003 -174.892954 0.151862 91.479548 11.188533 1.774921 -16.832833 -7.162483 -4.228078 22.271879 0.550194 2.332841 -11.816689 0.000000 -0.000000 0.000000 -11.806958 -7.525099 -16.076218 0.406170 -6.120443 23.210485 2.973904 -3.655778 -11.965490 0.000000 -0.000000 0.000000 1.055516 3.827095 16.398405 3.419330 -5.319463 8.334771 2.121100 0.330405 -5.293424 1.320955 9.827563 12.022084 4.450512 0.760766 18.561218 -16.366495 -29.833341 5.026156 -81.746179 -32.152726 29.338085 2.509596 -8.152612 14.266357 -8.585184 8.734772 -34.753886 18.340217 27.999757 9.645235 73.705301 33.846711 18.195565 -10.620324 4.589226 -14.635260 15.454733 5.091047 -53.760364 
0.005090 -0.097189 0.950034 -174.887047 0.172693 91.437851 11.171977 1.842315 -16.829679 -7.169627 -4.197163 22.306530 0.781189 2.213349 -11.830347 0.000000 -0.000000 0.000000 -11.801510 -7.545873 -16.007968 0.393522 -6.086600 23.100454 2.882204 -3.673011 -11.910121 0.000000 -0.000000 0.000000 1.124706 3.807794 16.566484 3.334293 -5.347351 8.128142 2.175316 0.373501 -5.164841 1.250774 9.781290 11.588004 4.524830 0.732697 18.850354 -16.367396 -30.081976 5.304861 -81.848083 -32.319366 29.124555 2.752226 -8.054306 14.851547 -9.073797 8.604103 -34.013682 18.228512 28.093876 9.902074 73.693042 33.907063 17.958195 -10.734499 4.912209 -14.547685 15.555283 5.238920 -54.073878 
0.004496 -0.097676 0.950159 -174.951081 0.222063 91.488626 11.182165 1.917431 -16.913143 -7.173393 -4.214593 22.341935 0.933751 2.171976 -11.869397 0.000000 -0.000000 0.000000 -11.752566 -7.647701 -16.127348 0.422346 -6.039525 23.065618 2.893905 -3.619515 -11.871026 0.000000 -0.000000 0.000000 1.245026 3.822953 16.543027 3.304691 -5.282774 8.089167 2.177465 0.357612 -5.091943 1.042865 9.800433 11.446090 4.482337 0.852825 18.634264 -16.488707 -30.107375 5.230142 -81.788824 -32.200888 29.186128 2.652568 -8.248783 14.894156 -8.646201 9.560674 -33.323885 18.327663 27.945934 9.618219 73.564896 33.669691 17.924891 -10.498098 5.129591 -14.476105 15.497877 5.106341 -54.132892 
0.003510 -0.097785 0.950237 -174.937831 0.178292 91.389530 11.075307 1.945067 -16.902334 -7.250761 -4.333995 22.535889 0.922814 2.180667 -12.022510 0.000000 -0.000000 0.000000 -11.896367 -7.741028 -15.959593 0.433713 -6.108833 22.935376 2.943672 -3.497326 -11.823265 0.000000 -0.000000 0.000000 1.288464 3.849216 16.724461 3.302299 -5.326625 7.956535 2.183428 0.328501 -5.058347 1.006686 9.996747 11.389846 4.425686 0.886863 18.683470 -16.464178 -30.102904 5.174499 -81.848083 -32.104752 29.240304 2.572315 -8.233975 15.470619 -8.740268 10.160832 -32.549552 18.384250 27.850935 9.528955 73.703366 33.569440 17.893926 -10.461506 5.136097 -14.630919 15.447916 4.925107 -54.338266 
0.002908 -0.097992 0.950238 -174.999985 0.207012 91.387625 11.057801 1.971711 -16.950543 -7.271059 -4.356250 22.634999 0.914034 2.283376 -12.086314 0.000000 -0.000000 0.000000 -11.895171 -7.749535 -15.932354 0.441543 -6.062231 22.833768 2.954841 -3.458139 -11.786918 0.000000 -0.000000 0.000000 1.325458 3.918391 16.813212 3.353818 -5.279350 7.776422 2.229049 0.271071 -4.998208 0.957109 10.049614 11.348220 4.388811 0.892697 18.728136 -16.377627 -30.123156 5.165236 -81.883957 -32.110979 29.349153 2.350495 -8.128926 15.615812 -8.278987 10.205941 -32.581004 18.301779 27.859133 9.437662 73.872650 33.425016 18.106320 -10.440482 5.185367 -14.724769 14.791369 4.787701 -54.774453 
0.001962 -0.098276 0.950105 -175.119876 0.208754 91.428680 11.052623 2.030413 -17.079716 -7.373973 -4.273396 22.834622 1.010965 2.304250 -12.194526 0.000000 -0.000000 0.000000 -11.934254 -7.803048 -15.928071 0.518364 -5.877270 22.645425 2.971776 -3.444472 -11.680499 0.000000 -0.000000 0.000000 1.319907 3.981716 16.746313 3.387938 -5.303945 7.812398 2.261899 0.337453 -4.969002 0.873358 10.066688 11.301255 4.413368 0.943908 18.620543 -16.301207 -30.185747 5.127835 -81.875597 -32.122041 29.267398 2.169145 -8.075859 15.245670 -7.378190 11.052646 -32.189929 18.387447 27.876603 9.491956 73.854460 33.371993 18.057666 -10.484195 5.414634 -14.991327 14.340540 4.359455 -54.700973 
0.000656 -0.098531 0.949998 -175.278737 0.208207 91.397614 10.953184 2.050039 -17.133085 -7.335165 -4.208053 23.065609 1.103911 2.403251 -12.292698 0.000000 -0.000000 0.000000 -12.000372 -7.805446 -15.932347 0.500530 -5.825994 22.589051 3.059366 -3.332800 -11.544979 0.000000 -0.000000 0.000000 1.433736 3.957370 16.734172 3.331578 -5.328071 7.967272 2.181365 0.377616 -5.012247 0.785465 10.194274 11.349509 4.467898 1.074058 18.412578 -16.255571 -30.183552 5.054611 -81.714138 -31.960788 29.034679 2.156180 -8.282142 15.305615 -7.400353 11.385596 -32.089410 18.397441 27.852567 9.575577 73.956650 33.523629 18.026684 -10.592450 5.510405 -14.567833 14.843384 4.080492 -54.326775 
-0.000540 -0.098529 0.949789 -175.452631 0.216889 91.372428 10.931677 2.052021 -17.143395 -7.434251 -4.166853 23.185215 1.111564 2.563845 -12.351497 0.000000 -0.000000 0.000000 -12.067938 -7.765112 -15.909857 0.550158 -5.697679 22.516987 3.122572 -3.279167 -11.497177 0.000000 -0.000000 0.000000 1.353228 3.946541 16.661836 3.367582 -5.354219 8.049793 2.248655 0.493265 -4.956158 0.739609 10.205241 11.349335 4.420754 1.101130 18.318095 -16.128335 -30.125197 4.979345 -81.731715 -31.853915 29.027435 2.122329 -8.458571 15.141882 -6.794508 11.771623 -32.268769 18.282413 27.984712 9.651317 73.913403 33.544944 18.029315 -10.414755 5.783923 -14.807264 14.285966 3.935394 -55.145463 
-0.001832 -0.098467 0.949607 -175.611766 0.185551 91.348307 10.862878 2.081418 -17.221922 -7.522637 -4.052632 23.485544 1.224417 2.611351 -12.469333 0.000000 -0.000000 0.000000 -12.185533 -7.833184 -15.916714 0.572399 -5.644129 22.483122 3.200066 -3.174506 -11.475144 0.000000 -0.000000 0.000000 1.397551 4.034661 16.693608 3.337341 -5.313075 8.000283 2.229941 0.505021 -4.961734 0.692752 10.108481 11.385196 4.438823 1.112116 18.294653 -16.063557 -30.133191 4.899434 -81.774534 -31.799841 29.073257 2.022246 -8.437348 15.263908 -6.362538 12.065318 -31.870201 18.261415 27.998824 9.570308 74.004865 33.378444 17.969470 -10.527214 5.797792 -15.296448 14.392858 4.093828 -55.438209 
-0.003422 -0.098275 0.949564 -175.746096 0.167260 91.282520 10.783912 2.105086 -17.172745 -7.586200 -3.984722 23.547765 1.234009 2.720741 -12.424025 0.000000 -0.000000 0.000000 -12.330326 -8.155523 -15.983040 0.645326 -6.114949 22.572438 3.239850 -3.180193 -11.126067 0.000000 -0.000000 0.000000 1.404145 4.169943 16.835705 3.357625 -5.287965 7.835116 2.334645 0.517807 -4.989156 0.631310 10.039119 11.499210 4.620879 1.079162 18.397432 -16.018895 -30.348597 4.930338 -81.800550 -31.834549 29.034515 1.976853 -8.244751 14.791875 -5.953497 11.875462 -31.919796 18.135106 28.026469 9.625585 74.109030 33.167877 17.905912 -10.777098 6.058174 -15.548805 14.313273 3.977856 -55.684227 
-0.004645 -0.098048 0.949385 -175.721867 0.113379 91.287095 10.717107 2.146279 -17.296558 -7.645794 -3.882341 23.686845 1.249911 2.621773 -12.364666 0.000000 -0.000000 0.000000 -12.440908 -8.206068 -15.887336 0.586995 -6.131332 22.419883 3.447961 -3.247964 -10.922431 0.000000 -0.000000 0.000000 1.470043 4.150772 16.799361 3.336851 -5.376971 7.877023 2.282506 0.524251 -5.031892 0.619743 10.083163 11.553152 4.543598 1.163592 18.310575 -16.124900 -30.471799 4.939591 -81.642252 -31.820215 28.954208 1.859475 -8.189917 14.841309 -6.061171 12.130815 -31.212070 18.166977 28.023919 9.626548 74.125461 33.262397 17.726411 -10.833822 5.876756 -15.996463 14.378148 3.852651 -55.516376 
-0.005368 -0.097892 0.949439 -175.693451 0.119822 91.244485 10.688447 2.225070 -17.279194 -7.660780 -3.845820 23.741071 1.300575 2.597318 -12.391001 0.000000 -0.000000 0.000000 -12.431067 -8.281390 -15.796187 0.495546 -6.089959 22.354011 3.518115 -3.246603 -10.872352 0.000000 -0.000000 0.000000 1.502537 4.178479 16.820998 3.386630 -5.398480 7.889653 2.307314 0.499448 -5.041370 0.495776 10.098830 11.548316 4.552899 1.197959 18.213032 -16.141008 -30.548283 4.966281 -81.542631 -31.848761 28.877208 1.737038 -8.225818 14.908463 -5.953575 12.304155 -31.177899 18.245060 28.023077 9.602181 74.167533 33.310838 17.549608 -11.056384 5.615954 -16.485354 14.520910 3.916964 -55.302147 
-0.006141 -0.097963 0.949287 -175.659773 0.084496 91.330335 10.646532 2.248457 -17.360469 -7.760542 -3.766465 23.694756 1.371788 2.607695 -12.398939 0.000000 -0.000000 0.000000 -12.462144 -8.064493 -15.778974 0.417184 -5.440380 22.271563 3.637994 -3.063587 -11.315940 0.000000 -0.000000 0.000000 1.501033 4.239783 16.789603 3.451634 -5.384745 7.758173 2.291074 0.473537 -5.023110 0.424827 10.197149 11.539031 4.585743 1.208848 18.211394 -16.206652 -30.635411 4.953472 -81.407868 -32.005775 28.902912 1.384441 -7.787630 14.694654 -5.353165 12.564578 -30.874312 18.350645 27.943687 9.530847 74.223240 33.115894 17.634260 -11.296482 5.714686 -17.190554 14.360494 3.982457 -55.161499 
-0.006732 -0.097949 0.949431 -175.562807 -0.031271 91.284098 10.496646 2.372172 -17.387280 -7.816086 -3.842127 23.814844 1.362464 2.441411 -12.368404 0.000000 -0.000000 0.000000 -12.660012 -8.397185 -15.904777 0.442760 -5.982089 22.571057 3.737892 -3.081465 -10.955384 0.000000 -0.000000 0.000000 1.604998 4.256431 16.953008 3.381537 -5.407337 7.650726 2.245625 0.501693 -5.050439 0.196485 10.289121 11.564156 4.636746 1.203661 18.030906 -16.158509 -30.856834 4.974691 -81.188781 -31.990103 28.855323 1.155715 -7.785815 15.045775 -5.054492 12.413619 -30.471139 18.365229 28.042522 9.536427 74.238860 32.753525 17.468663 -11.457246 6.257927 -17.610641 13.944939 4.107067 -56.139021 
-0.006918 -0.097884 0.949417 -175.523381 -0.108021 91.183695 10.516852 2.541969 -17.320819 -7.949508 -3.659482 23.841337 1.214504 2.236558 -12.302196 0.000000 -0.000000 0.000000 -12.758456 -8.250132 -15.891585 0.319780 -6.190569 22.831039 3.792493 -2.991701 -11.059207 0.000000 -0.000000 0.000000 1.568466 4.235409 17.128205 3.409692 -5.369322 7.701811 2.161471 0.547752 -5.141951 0.326838 10.476185 11.565182 4.498441 0.819044 17.952423 -15.869464 -30.950017 4.885196 -80.928395 -32.152574 28.955762 0.902506 -7.712797 16.474761 -6.503009 11.183014 -29.949719 18.317599 27.856494 9.617986 74.587642 32.522117 17.351230 -11.937377 6.785125 -18.152310 14.517852 4.438624 -56.993168 
-0.006326 -0.098224 0.949389 -175.737292 -0.216079 91.121597 10.629281 2.729123 -17.148900 -8.103061 -3.331347 23.687383 1.131262 1.980730 -12.344447 0.000000 -0.000000 0.000000 -12.758745 -7.569607 -16.206110 0.014057 -5.745382 23.495946 3.805127 -2.477164 -11.792175 0.000000 -0.000000 0.000000 1.433341 4.365135 17.345556 3.515944 -5.147867 7.742184 1.859330 0.707551 -5.355652 0.690774 11.134801 11.740886 4.281171 -0.102364 17.881260 -15.395875 -31.479563 5.033613 -80.053779 -32.976564 29.089041 0.051065 -6.456287 18.666537 -10.103126 7.091018 -30.419885 18.399035 27.872840 10.059901 75.296020 31.683178 17.642592 -13.488258 8.160682 -19.041257 14.227940 5.251398 -59.403827 
